<mxfile host="app.diagrams.net" modified="2023-08-14T13:34:43.656Z" agent="Mozilla/5.0 (X11; Linux x86_64; rv:109.0) Gecko/20100101 Firefox/116.0" version="21.6.8" etag="xiDmFqqyiyo6tQzKeZx_" type="github">
  <diagram name="Page-1" id="dyHAM5HxzbNCwolYe6A6">
    <mxGraphModel>
      <root>
        <mxCell id="0" />
        <mxCell id="1" parent="0" />
      </root>
    </mxGraphModel>
  </diagram>
</mxfile>
